<svg xmlns="http://www.w3.org/2000/svg" width="128" height="128" viewBox="0 0 128 128">
  <defs>
    <radialGradient id="rg" cx="40%" cy="35%" r="70%">
      <stop offset="0" stop-color="#a7f3d0"/>
      <stop offset="0.55" stop-color="#22c55e"/>
      <stop offset="1" stop-color="#064e3b"/>
    </radialGradient>
    <linearGradient id="lg" x1="0" y1="0" x2="1" y2="1">
      <stop offset="0" stop-color="#93c5fd"/>
      <stop offset="1" stop-color="#a78bfa"/>
    </linearGradient>
    <filter id="glow" x="-30%" y="-30%" width="160%" height="160%">
      <feDropShadow dx="0" dy="0" stdDeviation="5" flood-color="#34d399" flood-opacity="0.55"/>
    </filter>
  </defs>
  <rect x="10" y="10" width="108" height="108" rx="22" fill="#0b1220" stroke="#334155" stroke-width="4"/>
  <g filter="url(#glow)">
    <path d="M36 94 C34 76, 42 60, 56 52 C70 44, 86 46, 96 58 C106 70, 104 86, 92 96 C80 106, 56 108, 36 94 Z" fill="url(#rg)" stroke="#bbf7d0" stroke-width="3"/>
    <path d="M52 60 C58 52, 72 50, 82 58 C92 66, 92 78, 82 86 C72 94, 58 92, 52 84 C46 76, 46 68, 52 60 Z" fill="url(#lg)" opacity="0.65"/>
    <circle cx="54" cy="46" r="3.5" fill="#d1fae5"/>
    <circle cx="88" cy="44" r="2.8" fill="#d1fae5" opacity="0.9"/>
    <circle cx="92" cy="88" r="2.8" fill="#d1fae5" opacity="0.85"/>
    <circle cx="44" cy="88" r="2.4" fill="#d1fae5" opacity="0.8"/>
  </g>
  <path d="M28 96 L100 96" stroke="#1e293b" stroke-width="4" opacity="0.65"/>
</svg>

