<svg xmlns="http://www.w3.org/2000/svg" width="128" height="128" viewBox="0 0 128 128">
  <defs>
    <radialGradient id="rg" cx="35%" cy="30%" r="70%">
      <stop offset="0" stop-color="#fde68a"/>
      <stop offset="0.55" stop-color="#f59e0b"/>
      <stop offset="1" stop-color="#7c2d12"/>
    </radialGradient>
    <linearGradient id="lg" x1="0" y1="0" x2="1" y2="1">
      <stop offset="0" stop-color="#fb7185"/>
      <stop offset="1" stop-color="#f97316"/>
    </linearGradient>
    <filter id="glow" x="-30%" y="-30%" width="160%" height="160%">
      <feDropShadow dx="0" dy="0" stdDeviation="4" flood-color="#fbbf24" flood-opacity="0.55"/>
    </filter>
  </defs>
  <rect x="10" y="10" width="108" height="108" rx="22" fill="#0b1220" stroke="#334155" stroke-width="4"/>
  <g filter="url(#glow)">
    <path d="M40 98 C38 78, 44 62, 56 52 C66 43, 78 40, 88 44 C98 48, 104 58, 102 72 C100 86, 88 98, 72 104 C56 110, 42 108, 40 98 Z" fill="url(#rg)" stroke="#fef3c7" stroke-width="3"/>
    <path d="M52 64 C56 54, 68 48, 78 52 C88 56, 92 68, 86 78 C80 88, 66 92, 56 86 C46 80, 48 72, 52 64 Z" fill="url(#lg)" opacity="0.7"/>
    <circle cx="52" cy="46" r="4" fill="#fde68a"/>
    <circle cx="84" cy="40" r="3" fill="#fde68a" opacity="0.9"/>
    <circle cx="94" cy="86" r="3" fill="#fde68a" opacity="0.85"/>
    <circle cx="44" cy="86" r="2.5" fill="#fde68a" opacity="0.8"/>
  </g>
  <path d="M28 96 L100 96" stroke="#1e293b" stroke-width="4" opacity="0.65"/>
</svg>

