<svg xmlns="http://www.w3.org/2000/svg" width="128" height="128" viewBox="0 0 128 128">
  <defs>
    <linearGradient id="g1" x1="0" y1="0" x2="1" y2="1">
      <stop offset="0" stop-color="#60a5fa"/>
      <stop offset="1" stop-color="#1d4ed8"/>
    </linearGradient>
    <linearGradient id="g2" x1="0" y1="1" x2="1" y2="0">
      <stop offset="0" stop-color="#a78bfa"/>
      <stop offset="1" stop-color="#22d3ee"/>
    </linearGradient>
    <filter id="s" x="-20%" y="-20%" width="140%" height="140%">
      <feDropShadow dx="0" dy="4" stdDeviation="3" flood-color="#000" flood-opacity="0.5"/>
    </filter>
  </defs>
  <rect x="10" y="10" width="108" height="108" rx="22" fill="#0b1220" stroke="#334155" stroke-width="4"/>
  <g filter="url(#s)">
    <path d="M64 18 L98 50 L78 110 L50 110 L30 50 Z" fill="url(#g1)" stroke="#93c5fd" stroke-width="3" />
    <path d="M64 30 L86 52 L72 100 L56 100 L42 52 Z" fill="url(#g2)" opacity="0.85" />
    <path d="M50 58 L64 44 L78 58 L64 72 Z" fill="#e0f2fe" opacity="0.9"/>
  </g>
  <path d="M26 96 C40 84, 52 84, 64 96 C76 108, 88 108, 102 96" fill="none" stroke="#1e293b" stroke-width="4" opacity="0.65"/>
</svg>

